PathFileType	4	(X/Y/Z)	Patient4_TMGait_0pt6_01_left_34.trc.trc
DataRate	CameraRate	NumFrames	NumMarkers	Units	OrigDataRate	OrigDataStartFrame	OrigNumFrames
85.889570552147	85.889570552147	4	33	mm	85.889570552147	71	       141
Frame#	Time	Sacral			L.Shoulder			Chest			R.Shoulder			Neck			R.ASIS			L.ASIS			R.Thigh.Superior			R.Thigh.Lateral			R.Thigh.Inferior			R.Patella			L.Thigh.Superior			L.Thigh.Lateral			L.Thigh.Inferior			L.Patella			L.Shank.Superior			L.Shank.Lateral			L.Shank.Inferior			R.Shank.Superior			R.Shank.Lateral			R.Shank.Inferior			R.Heel			R.Midfoot.Superior			R.Midfoot.Lateral			R.Toe			L.Heel			L.Midfoot.Lateral			L.Midfoot.Superior			L.Toe			L.Elbow			L.Wrist			R.Elbow			R.Wrist			
		X1	Y1	Z1	X2	Y2	Z2	X3	Y3	Z3	X4	Y4	Z4	X5	Y5	Z5	X6	Y6	Z6	X7	Y7	Z7	X8	Y8	Z8	X9	Y9	Z9	X10	Y10	Z10	X11	Y11	Z11	X12	Y12	Z12	X13	Y13	Z13	X14	Y14	Z14	X15	Y15	Z15	X16	Y16	Z16	X17	Y17	Z17	X18	Y18	Z18	X19	Y19	Z19	X20	Y20	Z20	X21	Y21	Z21	X22	Y22	Z22	X23	Y23	Z23	X24	Y24	Z24	X25	Y25	Z25	X26	Y26	Z26	X27	Y27	Z27	X28	Y28	Z28	X29	Y29	Z29	X30	Y30	Z30	X31	Y31	Z31	X32	Y32	Z32	X33	Y33	Z33	

71	42.205000000000	753.792385263964	1002.873328330637	428.622480645269	947.467938815140	1436.717757280864	273.953472870718	1031.074971154572	1362.659596338901	442.496360642181	928.584819897625	1430.371847755357	607.137890779943	909.624518089851	1491.383846435072	427.123731795001	971.288516923843	942.954033296347	566.591057556019	980.006814540010	956.562405386533	291.404628242374	1052.201989793752	772.466286242731	535.449491585024	1012.899250193838	649.360406791524	606.280677916496	1101.447077474851	614.074168542393	525.386712860963	1137.425400359905	525.239666243557	543.740314856311	983.652901683034	727.057622751603	325.362368692201	871.648297742410	631.479101462281	257.929144864777	926.478424499058	538.928996009828	328.014470003054	910.415611947366	471.963552393476	338.870996873587	877.132006278710	406.178359249112	329.792448318428	777.523022991096	303.095906693196	274.581367255220	804.402860950238	188.412602461724	351.710263401164	1110.902699515435	436.022761856806	551.584175978403	1046.000945814357	328.291254875651	614.082799858025	1103.441730703482	235.761085554519	560.901603327029	990.692745977894	58.178004031369	532.665548536829	1158.245677558796	118.317983278558	570.328719891509	1075.266132138517	49.095227879539	605.503279333197	1280.018477293133	73.000166706548	595.907952800315	658.641856144682	41.063147995401	387.937646367170	735.854524016319	36.162448372077	311.299612688362	818.889456323717	95.534103602263	341.320674355810	947.662022299717	40.090617293974	317.991704149121	1024.917568190145	1112.287666501149	119.755677192472	1278.622093723254	1091.915645638855	152.545627409979	773.533514105324	1120.277881932440	703.565912962871	740.642199987044	860.533585566298	694.985466810061	
72	42.216642857143	755.052983035700	1001.293798904447	430.347149124620	947.876934946044	1435.411334568048	275.530725908987	1031.428701358312	1361.535991822566	444.127083631899	928.854443291982	1429.329806803183	608.658605228749	909.819593729514	1490.093922800605	428.635170349798	972.469426897830	941.543212692721	568.468737185466	981.169465329849	955.322256871212	293.048969561976	1051.669912168251	769.076308240036	538.013073419419	1010.061667560255	646.025288318611	607.713631148171	1098.693719324036	610.428104455508	527.102794352810	1133.689714668182	522.730172059516	544.405649163754	983.201191587984	725.616676378926	326.464461246504	870.314877292288	630.884869474261	258.982004762389	924.503052265818	537.792795495930	328.829929410805	908.027718671032	470.577424256735	339.512493710281	873.806714097730	405.137195924492	330.400772827598	772.934595516281	303.308655310133	275.060902110850	798.576280038577	188.096964552234	351.834137963446	1109.354616056345	433.494238408913	552.259232683736	1046.780063818021	323.776953919477	613.739641361293	1107.207374039332	232.985721594695	560.546246622733	999.368361354360	52.720786823482	530.780044087268	1165.246665600605	116.699752013229	569.570423454991	1083.577514037586	45.762045729208	604.258368648949	1287.989735207129	74.098496724829	596.157222859499	651.652528395492	41.511981301472	387.811852812381	728.914505095962	36.359262979584	311.261964598834	812.073922201332	95.551474107958	341.261128306786	940.721558601108	39.889425031708	317.887213974270	1027.055103336373	1111.753814338429	121.352759442042	1280.915487650480	1096.220113392808	153.942850159101	771.419558571323	1120.580005675110	703.822732411397	735.472821490718	861.146906323682	695.411490577890	
73	42.228285714286	756.490349293510	999.662443521832	432.286459559651	948.137824751400	1434.078509952592	277.219644042956	1031.770586308183	1360.474209091886	445.840074468023	929.104381982064	1428.216742305280	610.323027297051	909.938100931487	1488.781687792274	430.271769139208	973.882985604446	940.077207625289	570.469354775348	982.513978709754	954.085256073928	294.874566751856	1051.603556258894	765.774272768990	540.656860764626	1007.622059525384	642.728809133649	609.027181951273	1096.424807892971	606.933342715701	528.764622766493	1130.151135267193	520.006529893194	544.967198725331	983.029824862442	724.166486220655	327.677362777281	869.294897607100	630.265386640126	260.176609154415	922.925259380526	536.623340840265	329.767963707828	906.090403971281	469.075169493403	340.223634997885	870.806512250988	403.994201519011	331.078543582687	768.532718681493	303.577926537031	275.603086122407	792.853154722886	187.790235135872	351.968698458089	1107.513706434753	430.716206428924	552.847058789457	1046.459627656609	319.525321732536	613.176078494728	1109.210778322673	230.144742095884	560.036314874043	1004.970122731974	48.427102716655	528.627108635074	1169.515075542563	114.804100583061	568.623306096906	1088.589446642429	43.015033679484	602.886772533909	1292.771697445718	73.866272186693	596.438241539061	644.659376395362	42.072850958743	387.655094057884	721.979339718719	36.580502914023	311.197823546440	805.307691038322	95.581411941729	341.154580442814	933.802920101361	39.700337423535	317.751949727049	1028.765285223543	1110.998777097041	123.171122822581	1282.711103990056	1099.632149297766	155.426094734965	770.295102113002	1120.220600155969	704.278629484787	731.938922633471	861.054449197610	695.895354863920	
74	42.239928571429	758.067223898769	998.024721007049	434.421419787387	948.255067852139	1432.750750953770	279.033909723175	1032.113662604890	1359.500705204428	447.646739691120	929.346621168038	1427.051022335815	612.149519161975	909.998143565820	1487.478184633195	432.047958128180	975.514665538831	938.582571269314	572.575766194679	984.013396913229	952.882845577439	296.880694401350	1052.057990364780	762.657414409706	543.297103779230	1005.679847692912	639.575503376246	610.191423237504	1094.746712351418	603.694546172254	530.347720193374	1126.949601762981	517.164278312350	545.416828608208	983.179747523381	722.746472847829	328.982662421460	868.657431636425	629.609867737081	261.516356433492	921.868309847895	535.425231942070	330.821328363196	904.740281869791	467.438143919548	340.983812159845	868.234429957501	402.742456946217	331.817374510159	764.397333027003	303.930021285201	276.207514880210	787.290003502878	187.514369090938	352.102527775789	1105.514725083162	427.775764620521	553.333435869797	1045.226187782373	315.602124851381	612.496707706713	1109.578632331751	227.255237776523	559.417892330558	1007.537831717602	45.218511342973	526.401960372547	1171.154311314762	112.656922818938	567.531644681790	1090.437727287717	40.817090521671	601.525894557771	1294.559791670935	72.356098364620	596.713160193129	637.675156200783	42.816309638156	387.455684084002	715.055855254473	36.848273512398	311.100221277709	798.624067226294	95.627299200700	340.981693780168	926.907183416759	39.523412953371	317.591471298154	1030.016621319212	1110.027936547632	125.204621976279	1284.010382126397	1102.143016469677	156.985463547165	770.142841712863	1119.211465950578	704.966761712010	730.049420519740	860.246229815100	696.494431700069	
